<mxfile host="app.diagrams.net" modified="2024-04-02T20:14:52.017Z" agent="Mozilla/5.0 (X11; Ubuntu; Linux x86_64; rv:123.0) Gecko/20100101 Firefox/123.0" etag="G0eiSNpNJBWsdOgJfMFX" version="24.2.1" type="device">
  <diagram name="Страница — 1" id="1dpF23kXrjFjm8gWY1fu">
    <mxGraphModel dx="1234" dy="1182" grid="1" gridSize="10" guides="1" tooltips="1" connect="1" arrows="1" fold="1" page="1" pageScale="1" pageWidth="827" pageHeight="1169" math="0" shadow="0">
      <root>
        <mxCell id="0" />
        <mxCell id="1" parent="0" />
        <mxCell id="9ZyyZGhGzsiPdLYiachG-24" style="edgeStyle=orthogonalEdgeStyle;rounded=0;orthogonalLoop=1;jettySize=auto;html=1;exitX=0.5;exitY=1;exitDx=0;exitDy=0;entryX=0.5;entryY=0;entryDx=0;entryDy=0;fontSize=12;fontColor=#000000;" edge="1" parent="1" source="9ZyyZGhGzsiPdLYiachG-2" target="9ZyyZGhGzsiPdLYiachG-6">
          <mxGeometry relative="1" as="geometry" />
        </mxCell>
        <mxCell id="9ZyyZGhGzsiPdLYiachG-2" value="&lt;div style=&quot;font-size: 12px;&quot;&gt;Начало&amp;nbsp;&lt;/div&gt;&lt;div style=&quot;font-size: 12px;&quot;&gt;Print footer&lt;/div&gt;" style="rounded=1;whiteSpace=wrap;html=1;fontSize=12;fontColor=#000000;" vertex="1" parent="1">
          <mxGeometry x="40" y="40" width="120" height="60" as="geometry" />
        </mxCell>
        <mxCell id="9ZyyZGhGzsiPdLYiachG-5" style="edgeStyle=orthogonalEdgeStyle;rounded=0;orthogonalLoop=1;jettySize=auto;html=1;exitX=0.5;exitY=1;exitDx=0;exitDy=0;entryX=0.5;entryY=0;entryDx=0;entryDy=0;fontSize=12;fontColor=#000000;" edge="1" parent="1" source="9ZyyZGhGzsiPdLYiachG-6" target="9ZyyZGhGzsiPdLYiachG-8">
          <mxGeometry relative="1" as="geometry" />
        </mxCell>
        <mxCell id="9ZyyZGhGzsiPdLYiachG-6" value="&lt;div style=&quot;background-color: rgb(255, 255, 255); font-family: &amp;quot;Droid Sans Mono&amp;quot;, &amp;quot;monospace&amp;quot;, monospace; font-weight: normal; font-size: 12px; line-height: 19px; white-space: pre;&quot;&gt;&lt;div style=&quot;font-size: 12px;&quot;&gt;&lt;span style=&quot;font-size: 12px;&quot;&gt;MOV&lt;/span&gt; &lt;span style=&quot;font-size: 12px;&quot;&gt;AH&lt;/span&gt;&lt;span style=&quot;font-size: 12px;&quot;&gt;, &lt;/span&gt;&lt;span style=&quot;font-size: 12px;&quot;&gt;02h&lt;/span&gt;&lt;/div&gt;&lt;/div&gt;" style="rounded=0;whiteSpace=wrap;html=1;fontSize=12;fontColor=#000000;" vertex="1" parent="1">
          <mxGeometry x="40" y="120" width="120" height="60" as="geometry" />
        </mxCell>
        <mxCell id="9ZyyZGhGzsiPdLYiachG-7" style="edgeStyle=orthogonalEdgeStyle;rounded=0;orthogonalLoop=1;jettySize=auto;html=1;exitX=0.5;exitY=1;exitDx=0;exitDy=0;entryX=0.5;entryY=0;entryDx=0;entryDy=0;fontSize=12;fontColor=#000000;" edge="1" parent="1" source="9ZyyZGhGzsiPdLYiachG-8" target="9ZyyZGhGzsiPdLYiachG-10">
          <mxGeometry relative="1" as="geometry" />
        </mxCell>
        <mxCell id="9ZyyZGhGzsiPdLYiachG-8" value="&lt;div style=&quot;background-color: rgb(255, 255, 255); font-family: &amp;quot;Droid Sans Mono&amp;quot;, &amp;quot;monospace&amp;quot;, monospace; font-weight: normal; font-size: 12px; line-height: 19px; white-space: pre;&quot;&gt;&lt;div style=&quot;font-size: 12px;&quot;&gt;&lt;span style=&quot;font-size: 12px;&quot;&gt;MOV&lt;/span&gt;  &lt;span style=&quot;font-size: 12px;&quot;&gt;DL&lt;/span&gt;&lt;span style=&quot;font-size: 12px;&quot;&gt;, &lt;/span&gt;&lt;span style=&quot;font-size: 12px;&quot;&gt;192&lt;/span&gt;&lt;/div&gt;&lt;/div&gt;" style="rounded=0;whiteSpace=wrap;html=1;fontSize=12;fontColor=#000000;" vertex="1" parent="1">
          <mxGeometry x="40" y="200" width="120" height="60" as="geometry" />
        </mxCell>
        <mxCell id="9ZyyZGhGzsiPdLYiachG-9" style="edgeStyle=orthogonalEdgeStyle;rounded=0;orthogonalLoop=1;jettySize=auto;html=1;exitX=0.5;exitY=1;exitDx=0;exitDy=0;entryX=0.5;entryY=0;entryDx=0;entryDy=0;fontSize=12;fontColor=#000000;" edge="1" parent="1" source="9ZyyZGhGzsiPdLYiachG-10" target="9ZyyZGhGzsiPdLYiachG-12">
          <mxGeometry relative="1" as="geometry" />
        </mxCell>
        <mxCell id="9ZyyZGhGzsiPdLYiachG-10" value="&lt;div style=&quot;background-color: rgb(255, 255, 255); font-family: &amp;quot;Droid Sans Mono&amp;quot;, &amp;quot;monospace&amp;quot;, monospace; font-weight: normal; font-size: 12px; line-height: 19px; white-space: pre;&quot;&gt;&lt;div style=&quot;font-size: 12px;&quot;&gt;&lt;span style=&quot;font-size: 12px;&quot;&gt;INT&lt;/span&gt;  &lt;span style=&quot;font-size: 12px;&quot;&gt;21h&lt;/span&gt;&lt;/div&gt;&lt;/div&gt;" style="rounded=0;whiteSpace=wrap;html=1;fontSize=12;fontColor=#000000;" vertex="1" parent="1">
          <mxGeometry x="40" y="280" width="120" height="60" as="geometry" />
        </mxCell>
        <mxCell id="9ZyyZGhGzsiPdLYiachG-11" style="edgeStyle=orthogonalEdgeStyle;rounded=0;orthogonalLoop=1;jettySize=auto;html=1;exitX=0.5;exitY=1;exitDx=0;exitDy=0;entryX=0.5;entryY=0;entryDx=0;entryDy=0;fontSize=12;fontColor=#000000;" edge="1" parent="1" source="9ZyyZGhGzsiPdLYiachG-12" target="9ZyyZGhGzsiPdLYiachG-14">
          <mxGeometry relative="1" as="geometry" />
        </mxCell>
        <mxCell id="9ZyyZGhGzsiPdLYiachG-12" value="&lt;div style=&quot;background-color: rgb(255, 255, 255); font-family: &amp;quot;Droid Sans Mono&amp;quot;, &amp;quot;monospace&amp;quot;, monospace; font-weight: normal; font-size: 12px; line-height: 19px; white-space: pre;&quot;&gt;&lt;div style=&quot;font-size: 12px;&quot;&gt;&lt;span style=&quot;font-size: 12px;&quot;&gt;MOV&lt;/span&gt;  &lt;span style=&quot;font-size: 12px;&quot;&gt;DL&lt;/span&gt;&lt;span style=&quot;font-size: 12px;&quot;&gt;, &lt;/span&gt;&lt;span style=&quot;font-size: 12px;&quot;&gt;196&lt;/span&gt;&lt;/div&gt;&lt;/div&gt;" style="rounded=0;whiteSpace=wrap;html=1;fontSize=12;fontColor=#000000;" vertex="1" parent="1">
          <mxGeometry x="40" y="360" width="120" height="60" as="geometry" />
        </mxCell>
        <mxCell id="9ZyyZGhGzsiPdLYiachG-13" style="edgeStyle=orthogonalEdgeStyle;rounded=0;orthogonalLoop=1;jettySize=auto;html=1;exitX=0.5;exitY=1;exitDx=0;exitDy=0;entryX=0.5;entryY=0;entryDx=0;entryDy=0;fontSize=12;fontColor=#000000;" edge="1" parent="1" source="9ZyyZGhGzsiPdLYiachG-14" target="9ZyyZGhGzsiPdLYiachG-16">
          <mxGeometry relative="1" as="geometry" />
        </mxCell>
        <mxCell id="9ZyyZGhGzsiPdLYiachG-14" value="&lt;div style=&quot;font-size: 12px;&quot;&gt;Выполнение&lt;/div&gt;&lt;div style=&quot;font-size: 12px;&quot;&gt;&lt;div style=&quot;background-color: rgb(255, 255, 255); font-family: &amp;quot;Droid Sans Mono&amp;quot;, &amp;quot;monospace&amp;quot;, monospace; font-weight: normal; font-size: 12px; line-height: 19px; white-space: pre;&quot;&gt;&lt;div style=&quot;font-size: 12px;&quot;&gt;&lt;span style=&quot;font-size: 12px;&quot;&gt;INT&lt;/span&gt; &lt;span style=&quot;font-size: 12px;&quot;&gt;21h&lt;/span&gt;&lt;/div&gt;&lt;/div&gt;&lt;/div&gt;&lt;div style=&quot;font-size: 12px;&quot;&gt;6 раз&lt;br style=&quot;font-size: 12px;&quot;&gt;&lt;/div&gt;" style="rounded=0;whiteSpace=wrap;html=1;fontSize=12;fontColor=#000000;" vertex="1" parent="1">
          <mxGeometry x="40" y="440" width="120" height="60" as="geometry" />
        </mxCell>
        <mxCell id="9ZyyZGhGzsiPdLYiachG-15" style="edgeStyle=orthogonalEdgeStyle;rounded=0;orthogonalLoop=1;jettySize=auto;html=1;exitX=0.5;exitY=1;exitDx=0;exitDy=0;entryX=0.5;entryY=0;entryDx=0;entryDy=0;fontSize=12;fontColor=#000000;" edge="1" parent="1" source="9ZyyZGhGzsiPdLYiachG-16" target="9ZyyZGhGzsiPdLYiachG-18">
          <mxGeometry relative="1" as="geometry" />
        </mxCell>
        <mxCell id="9ZyyZGhGzsiPdLYiachG-16" value="&lt;div style=&quot;background-color: rgb(255, 255, 255); font-family: &amp;quot;Droid Sans Mono&amp;quot;, &amp;quot;monospace&amp;quot;, monospace; font-weight: normal; font-size: 12px; line-height: 19px; white-space: pre;&quot;&gt;&lt;div style=&quot;font-size: 12px;&quot;&gt;&lt;span style=&quot;font-size: 12px;&quot;&gt;MOV&lt;/span&gt;  &lt;span style=&quot;font-size: 12px;&quot;&gt;DL&lt;/span&gt;&lt;span style=&quot;font-size: 12px;&quot;&gt;, &lt;/span&gt;&lt;span style=&quot;font-size: 12px;&quot;&gt;217&lt;/span&gt;&lt;/div&gt;&lt;/div&gt;" style="rounded=0;whiteSpace=wrap;html=1;fontSize=12;fontColor=#000000;" vertex="1" parent="1">
          <mxGeometry x="40" y="520" width="120" height="60" as="geometry" />
        </mxCell>
        <mxCell id="9ZyyZGhGzsiPdLYiachG-17" style="edgeStyle=orthogonalEdgeStyle;rounded=0;orthogonalLoop=1;jettySize=auto;html=1;exitX=0.5;exitY=1;exitDx=0;exitDy=0;entryX=0.5;entryY=0;entryDx=0;entryDy=0;fontSize=12;fontColor=#000000;" edge="1" parent="1" source="9ZyyZGhGzsiPdLYiachG-18" target="9ZyyZGhGzsiPdLYiachG-22">
          <mxGeometry relative="1" as="geometry" />
        </mxCell>
        <mxCell id="9ZyyZGhGzsiPdLYiachG-18" value="&lt;div style=&quot;background-color: rgb(255, 255, 255); font-family: &amp;quot;Droid Sans Mono&amp;quot;, &amp;quot;monospace&amp;quot;, monospace; font-weight: normal; font-size: 12px; line-height: 19px; white-space: pre;&quot;&gt;&lt;div style=&quot;font-size: 12px;&quot;&gt;&lt;span style=&quot;font-size: 12px;&quot;&gt;INT&lt;/span&gt; &lt;span style=&quot;font-size: 12px;&quot;&gt;21h&lt;/span&gt;&lt;/div&gt;&lt;/div&gt;" style="rounded=0;whiteSpace=wrap;html=1;fontSize=12;fontColor=#000000;" vertex="1" parent="1">
          <mxGeometry x="40" y="600" width="120" height="60" as="geometry" />
        </mxCell>
        <mxCell id="9ZyyZGhGzsiPdLYiachG-25" style="edgeStyle=orthogonalEdgeStyle;rounded=0;orthogonalLoop=1;jettySize=auto;html=1;exitX=0.5;exitY=1;exitDx=0;exitDy=0;entryX=0.5;entryY=0;entryDx=0;entryDy=0;fontSize=12;fontColor=#000000;" edge="1" parent="1" source="9ZyyZGhGzsiPdLYiachG-22" target="9ZyyZGhGzsiPdLYiachG-23">
          <mxGeometry relative="1" as="geometry" />
        </mxCell>
        <mxCell id="9ZyyZGhGzsiPdLYiachG-22" value="&lt;div style=&quot;background-color: rgb(255, 255, 255); font-family: &amp;quot;Droid Sans Mono&amp;quot;, &amp;quot;monospace&amp;quot;, monospace; font-weight: normal; font-size: 12px; line-height: 19px; white-space: pre;&quot;&gt;&lt;div style=&quot;font-size: 12px;&quot;&gt;&lt;span style=&quot;font-size: 12px;&quot;&gt;CALL&lt;/span&gt;&lt;span style=&quot;font-size: 12px;&quot;&gt;&lt;br style=&quot;font-size: 12px;&quot;&gt;&lt;/span&gt;&lt;/div&gt;&lt;div style=&quot;font-size: 12px;&quot;&gt;&lt;span style=&quot;font-size: 12px;&quot;&gt;CLRF&lt;/span&gt;&lt;/div&gt;&lt;/div&gt;" style="shape=process;whiteSpace=wrap;html=1;backgroundOutline=1;fontSize=12;fontColor=#000000;" vertex="1" parent="1">
          <mxGeometry x="40" y="680" width="120" height="60" as="geometry" />
        </mxCell>
        <mxCell id="9ZyyZGhGzsiPdLYiachG-23" value="&lt;div style=&quot;font-size: 12px;&quot;&gt;Конец&lt;/div&gt;&lt;div style=&quot;font-size: 12px;&quot;&gt;Print footer&lt;/div&gt;" style="rounded=1;whiteSpace=wrap;html=1;fontSize=12;fontColor=#000000;" vertex="1" parent="1">
          <mxGeometry x="40" y="760" width="120" height="60" as="geometry" />
        </mxCell>
        <mxCell id="9ZyyZGhGzsiPdLYiachG-26" style="edgeStyle=orthogonalEdgeStyle;rounded=0;orthogonalLoop=1;jettySize=auto;html=1;exitX=0.5;exitY=1;exitDx=0;exitDy=0;entryX=0.5;entryY=0;entryDx=0;entryDy=0;fontSize=12;fontColor=#000000;" edge="1" parent="1" source="9ZyyZGhGzsiPdLYiachG-27" target="9ZyyZGhGzsiPdLYiachG-30">
          <mxGeometry relative="1" as="geometry" />
        </mxCell>
        <mxCell id="9ZyyZGhGzsiPdLYiachG-27" value="Начало CLRF" style="rounded=1;whiteSpace=wrap;html=1;fontSize=12;fontColor=#000000;" vertex="1" parent="1">
          <mxGeometry x="200" y="40" width="120" height="60" as="geometry" />
        </mxCell>
        <mxCell id="9ZyyZGhGzsiPdLYiachG-28" value="Конец CLRF" style="rounded=1;whiteSpace=wrap;html=1;fontSize=12;fontColor=#000000;" vertex="1" parent="1">
          <mxGeometry x="200" y="520" width="120" height="60" as="geometry" />
        </mxCell>
        <mxCell id="9ZyyZGhGzsiPdLYiachG-29" style="edgeStyle=orthogonalEdgeStyle;rounded=0;orthogonalLoop=1;jettySize=auto;html=1;exitX=0.5;exitY=1;exitDx=0;exitDy=0;entryX=0.5;entryY=0;entryDx=0;entryDy=0;fontSize=12;fontColor=#000000;" edge="1" parent="1" source="9ZyyZGhGzsiPdLYiachG-30" target="9ZyyZGhGzsiPdLYiachG-32">
          <mxGeometry relative="1" as="geometry" />
        </mxCell>
        <mxCell id="9ZyyZGhGzsiPdLYiachG-30" value="&lt;div style=&quot;background-color: rgb(255, 255, 255); font-family: &amp;quot;Droid Sans Mono&amp;quot;, &amp;quot;monospace&amp;quot;, monospace; font-weight: normal; font-size: 12px; line-height: 19px; white-space: pre;&quot;&gt;&lt;div style=&quot;font-size: 12px;&quot;&gt;&lt;span style=&quot;font-size: 12px;&quot;&gt;MOV&lt;/span&gt;  &lt;span style=&quot;font-size: 12px;&quot;&gt;AH&lt;/span&gt;&lt;span style=&quot;font-size: 12px;&quot;&gt;, &lt;/span&gt;&lt;span style=&quot;font-size: 12px;&quot;&gt;02H&lt;/span&gt;&lt;/div&gt;&lt;/div&gt;" style="rounded=0;whiteSpace=wrap;html=1;fontSize=12;fontColor=#000000;" vertex="1" parent="1">
          <mxGeometry x="200" y="120" width="120" height="60" as="geometry" />
        </mxCell>
        <mxCell id="9ZyyZGhGzsiPdLYiachG-31" style="edgeStyle=orthogonalEdgeStyle;rounded=0;orthogonalLoop=1;jettySize=auto;html=1;exitX=0.5;exitY=1;exitDx=0;exitDy=0;entryX=0.5;entryY=0;entryDx=0;entryDy=0;fontSize=12;fontColor=#000000;" edge="1" parent="1" source="9ZyyZGhGzsiPdLYiachG-32" target="9ZyyZGhGzsiPdLYiachG-34">
          <mxGeometry relative="1" as="geometry" />
        </mxCell>
        <mxCell id="9ZyyZGhGzsiPdLYiachG-32" value="&lt;div style=&quot;background-color: rgb(255, 255, 255); font-family: &amp;quot;Droid Sans Mono&amp;quot;, &amp;quot;monospace&amp;quot;, monospace; font-weight: normal; font-size: 12px; line-height: 19px; white-space: pre;&quot;&gt;&lt;div style=&quot;font-size: 12px;&quot;&gt;&lt;span style=&quot;font-size: 12px;&quot;&gt;MOV&lt;/span&gt;  &lt;span style=&quot;font-size: 12px;&quot;&gt;DL&lt;/span&gt;&lt;span style=&quot;font-size: 12px;&quot;&gt;, &lt;/span&gt;&lt;span style=&quot;font-size: 12px;&quot;&gt;10&lt;/span&gt;&lt;/div&gt;&lt;/div&gt;" style="rounded=0;whiteSpace=wrap;html=1;fontSize=12;fontColor=#000000;" vertex="1" parent="1">
          <mxGeometry x="200" y="200" width="120" height="60" as="geometry" />
        </mxCell>
        <mxCell id="9ZyyZGhGzsiPdLYiachG-33" style="edgeStyle=orthogonalEdgeStyle;rounded=0;orthogonalLoop=1;jettySize=auto;html=1;exitX=0.5;exitY=1;exitDx=0;exitDy=0;entryX=0.5;entryY=0;entryDx=0;entryDy=0;fontSize=12;fontColor=#000000;" edge="1" parent="1" source="9ZyyZGhGzsiPdLYiachG-34" target="9ZyyZGhGzsiPdLYiachG-36">
          <mxGeometry relative="1" as="geometry" />
        </mxCell>
        <mxCell id="9ZyyZGhGzsiPdLYiachG-34" value="&lt;div style=&quot;background-color: rgb(255, 255, 255); font-family: &amp;quot;Droid Sans Mono&amp;quot;, &amp;quot;monospace&amp;quot;, monospace; font-weight: normal; font-size: 12px; line-height: 19px; white-space: pre;&quot;&gt;&lt;div style=&quot;font-size: 12px;&quot;&gt;&lt;span style=&quot;font-size: 12px;&quot;&gt;INT&lt;/span&gt;  &lt;span style=&quot;font-size: 12px;&quot;&gt;21H&lt;/span&gt;&lt;/div&gt;&lt;/div&gt;" style="rounded=0;whiteSpace=wrap;html=1;fontSize=12;fontColor=#000000;" vertex="1" parent="1">
          <mxGeometry x="200" y="280" width="120" height="60" as="geometry" />
        </mxCell>
        <mxCell id="9ZyyZGhGzsiPdLYiachG-35" style="edgeStyle=orthogonalEdgeStyle;rounded=0;orthogonalLoop=1;jettySize=auto;html=1;exitX=0.5;exitY=1;exitDx=0;exitDy=0;entryX=0.5;entryY=0;entryDx=0;entryDy=0;fontSize=12;fontColor=#000000;" edge="1" parent="1" source="9ZyyZGhGzsiPdLYiachG-36" target="9ZyyZGhGzsiPdLYiachG-38">
          <mxGeometry relative="1" as="geometry" />
        </mxCell>
        <mxCell id="9ZyyZGhGzsiPdLYiachG-36" value="&lt;div style=&quot;background-color: rgb(255, 255, 255); font-family: &amp;quot;Droid Sans Mono&amp;quot;, &amp;quot;monospace&amp;quot;, monospace; font-weight: normal; font-size: 12px; line-height: 19px; white-space: pre;&quot;&gt;&lt;div style=&quot;font-size: 12px;&quot;&gt;&lt;span style=&quot;font-size: 12px;&quot;&gt;MOV&lt;/span&gt; &lt;span style=&quot;font-size: 12px;&quot;&gt;DL&lt;/span&gt;&lt;span style=&quot;font-size: 12px;&quot;&gt;, &lt;/span&gt;&lt;span style=&quot;font-size: 12px;&quot;&gt;13&lt;/span&gt;&lt;/div&gt;&lt;/div&gt;" style="rounded=0;whiteSpace=wrap;html=1;fontSize=12;fontColor=#000000;" vertex="1" parent="1">
          <mxGeometry x="200" y="360" width="120" height="60" as="geometry" />
        </mxCell>
        <mxCell id="9ZyyZGhGzsiPdLYiachG-37" style="edgeStyle=orthogonalEdgeStyle;rounded=0;orthogonalLoop=1;jettySize=auto;html=1;exitX=0.5;exitY=1;exitDx=0;exitDy=0;entryX=0.5;entryY=0;entryDx=0;entryDy=0;fontSize=12;fontColor=#000000;" edge="1" parent="1" source="9ZyyZGhGzsiPdLYiachG-38" target="9ZyyZGhGzsiPdLYiachG-28">
          <mxGeometry relative="1" as="geometry" />
        </mxCell>
        <mxCell id="9ZyyZGhGzsiPdLYiachG-38" value="&lt;div style=&quot;background-color: rgb(255, 255, 255); font-family: &amp;quot;Droid Sans Mono&amp;quot;, &amp;quot;monospace&amp;quot;, monospace; font-weight: normal; font-size: 12px; line-height: 19px; white-space: pre;&quot;&gt;&lt;div style=&quot;font-size: 12px;&quot;&gt;&lt;span style=&quot;font-size: 12px;&quot;&gt;INT&lt;/span&gt; &lt;span style=&quot;font-size: 12px;&quot;&gt;21H&lt;/span&gt;&lt;/div&gt;&lt;/div&gt;" style="rounded=0;whiteSpace=wrap;html=1;fontSize=12;fontColor=#000000;" vertex="1" parent="1">
          <mxGeometry x="200" y="440" width="120" height="60" as="geometry" />
        </mxCell>
        <mxCell id="9ZyyZGhGzsiPdLYiachG-53" style="edgeStyle=orthogonalEdgeStyle;rounded=0;orthogonalLoop=1;jettySize=auto;html=1;exitX=0.5;exitY=1;exitDx=0;exitDy=0;entryX=0.5;entryY=0;entryDx=0;entryDy=0;fontSize=12;fontColor=#000000;" edge="1" parent="1" source="9ZyyZGhGzsiPdLYiachG-39" target="9ZyyZGhGzsiPdLYiachG-40">
          <mxGeometry relative="1" as="geometry" />
        </mxCell>
        <mxCell id="9ZyyZGhGzsiPdLYiachG-39" value="Начало Hex" style="rounded=1;whiteSpace=wrap;html=1;fontSize=12;fontColor=#000000;" vertex="1" parent="1">
          <mxGeometry x="360" y="40" width="120" height="60" as="geometry" />
        </mxCell>
        <mxCell id="9ZyyZGhGzsiPdLYiachG-54" style="edgeStyle=orthogonalEdgeStyle;rounded=0;orthogonalLoop=1;jettySize=auto;html=1;exitX=0.5;exitY=1;exitDx=0;exitDy=0;entryX=0.5;entryY=0;entryDx=0;entryDy=0;fontSize=12;fontColor=#000000;" edge="1" parent="1" source="9ZyyZGhGzsiPdLYiachG-40" target="9ZyyZGhGzsiPdLYiachG-41">
          <mxGeometry relative="1" as="geometry" />
        </mxCell>
        <mxCell id="9ZyyZGhGzsiPdLYiachG-40" value="Сохранение регистра AX на стеке" style="rounded=0;whiteSpace=wrap;html=1;fontSize=12;fontColor=#000000;" vertex="1" parent="1">
          <mxGeometry x="360" y="120" width="120" height="60" as="geometry" />
        </mxCell>
        <mxCell id="9ZyyZGhGzsiPdLYiachG-55" style="edgeStyle=orthogonalEdgeStyle;rounded=0;orthogonalLoop=1;jettySize=auto;html=1;exitX=0.5;exitY=1;exitDx=0;exitDy=0;entryX=0.5;entryY=0;entryDx=0;entryDy=0;fontSize=12;fontColor=#000000;" edge="1" parent="1" source="9ZyyZGhGzsiPdLYiachG-41" target="9ZyyZGhGzsiPdLYiachG-42">
          <mxGeometry relative="1" as="geometry" />
        </mxCell>
        <mxCell id="9ZyyZGhGzsiPdLYiachG-41" value="&lt;div style=&quot;background-color: rgb(255, 255, 255); font-family: &amp;quot;Droid Sans Mono&amp;quot;, &amp;quot;monospace&amp;quot;, monospace; font-weight: normal; font-size: 12px; line-height: 19px; white-space: pre;&quot;&gt;&lt;div style=&quot;font-size: 12px;&quot;&gt;&lt;span style=&quot;font-size: 12px;&quot;&gt;MOV&lt;/span&gt;  &lt;span style=&quot;font-size: 12px;&quot;&gt;SI&lt;/span&gt;&lt;span style=&quot;font-size: 12px;&quot;&gt;, &lt;/span&gt;&lt;span style=&quot;font-size: 12px;&quot;&gt;0&lt;/span&gt;&lt;/div&gt;&lt;/div&gt;" style="rounded=0;whiteSpace=wrap;html=1;fontSize=12;fontColor=#000000;" vertex="1" parent="1">
          <mxGeometry x="360" y="200" width="120" height="60" as="geometry" />
        </mxCell>
        <mxCell id="9ZyyZGhGzsiPdLYiachG-56" style="edgeStyle=orthogonalEdgeStyle;rounded=0;orthogonalLoop=1;jettySize=auto;html=1;exitX=0.5;exitY=1;exitDx=0;exitDy=0;entryX=0.5;entryY=0;entryDx=0;entryDy=0;fontSize=12;fontColor=#000000;" edge="1" parent="1" source="9ZyyZGhGzsiPdLYiachG-42" target="9ZyyZGhGzsiPdLYiachG-43">
          <mxGeometry relative="1" as="geometry" />
        </mxCell>
        <mxCell id="9ZyyZGhGzsiPdLYiachG-42" value="Сдвиг SHR AL на 4" style="rounded=0;whiteSpace=wrap;html=1;fontSize=12;fontColor=#000000;" vertex="1" parent="1">
          <mxGeometry x="360" y="280" width="120" height="60" as="geometry" />
        </mxCell>
        <mxCell id="9ZyyZGhGzsiPdLYiachG-57" style="edgeStyle=orthogonalEdgeStyle;rounded=0;orthogonalLoop=1;jettySize=auto;html=1;exitX=0.5;exitY=1;exitDx=0;exitDy=0;entryX=0.5;entryY=0;entryDx=0;entryDy=0;fontSize=12;fontColor=#000000;" edge="1" parent="1" source="9ZyyZGhGzsiPdLYiachG-43" target="9ZyyZGhGzsiPdLYiachG-44">
          <mxGeometry relative="1" as="geometry" />
        </mxCell>
        <mxCell id="9ZyyZGhGzsiPdLYiachG-43" value="&lt;div style=&quot;background-color: rgb(255, 255, 255); font-family: &amp;quot;Droid Sans Mono&amp;quot;, &amp;quot;monospace&amp;quot;, monospace; font-weight: normal; font-size: 12px; line-height: 19px; white-space: pre;&quot;&gt;&lt;div style=&quot;font-size: 12px;&quot;&gt;&lt;span style=&quot;font-size: 12px;&quot;&gt;XLAT&lt;/span&gt;&lt;/div&gt;&lt;/div&gt;" style="rounded=0;whiteSpace=wrap;html=1;fontSize=12;fontColor=#000000;" vertex="1" parent="1">
          <mxGeometry x="360" y="360" width="120" height="60" as="geometry" />
        </mxCell>
        <mxCell id="9ZyyZGhGzsiPdLYiachG-58" style="edgeStyle=orthogonalEdgeStyle;rounded=0;orthogonalLoop=1;jettySize=auto;html=1;exitX=0.5;exitY=1;exitDx=0;exitDy=0;entryX=0.5;entryY=0;entryDx=0;entryDy=0;fontSize=12;fontColor=#000000;" edge="1" parent="1" source="9ZyyZGhGzsiPdLYiachG-44" target="9ZyyZGhGzsiPdLYiachG-45">
          <mxGeometry relative="1" as="geometry" />
        </mxCell>
        <mxCell id="9ZyyZGhGzsiPdLYiachG-44" value="&lt;div style=&quot;background-color: rgb(255, 255, 255); font-family: &amp;quot;Droid Sans Mono&amp;quot;, &amp;quot;monospace&amp;quot;, monospace; font-weight: normal; font-size: 12px; line-height: 19px; white-space: pre;&quot;&gt;&lt;div style=&quot;font-size: 12px;&quot;&gt;Сохранение&lt;/div&gt;&lt;div style=&quot;font-size: 12px;&quot;&gt;старших 4 бит&lt;/div&gt;&lt;div style=&quot;font-size: 12px;&quot;&gt;в массиве&lt;/div&gt;&lt;div style=&quot;font-size: 12px;&quot;&gt;HEXDGT&lt;/div&gt;&lt;/div&gt;" style="rounded=0;whiteSpace=wrap;html=1;fontSize=12;fontColor=#000000;" vertex="1" parent="1">
          <mxGeometry x="360" y="440" width="120" height="80" as="geometry" />
        </mxCell>
        <mxCell id="9ZyyZGhGzsiPdLYiachG-59" style="edgeStyle=orthogonalEdgeStyle;rounded=0;orthogonalLoop=1;jettySize=auto;html=1;exitX=0.5;exitY=1;exitDx=0;exitDy=0;entryX=0.5;entryY=0;entryDx=0;entryDy=0;fontSize=12;fontColor=#000000;" edge="1" parent="1" source="9ZyyZGhGzsiPdLYiachG-45" target="9ZyyZGhGzsiPdLYiachG-46">
          <mxGeometry relative="1" as="geometry" />
        </mxCell>
        <mxCell id="9ZyyZGhGzsiPdLYiachG-45" value="&lt;div style=&quot;background-color: rgb(255, 255, 255); font-family: &amp;quot;Droid Sans Mono&amp;quot;, &amp;quot;monospace&amp;quot;, monospace; font-weight: normal; font-size: 12px; line-height: 19px; white-space: pre;&quot;&gt;&lt;div style=&quot;font-size: 12px;&quot;&gt;&lt;span style=&quot;font-size: 12px;&quot;&gt;INC&lt;/span&gt;  &lt;span style=&quot;font-size: 12px;&quot;&gt;SI&lt;/span&gt;&lt;/div&gt;&lt;/div&gt;" style="rounded=0;whiteSpace=wrap;html=1;fontSize=12;fontColor=#000000;" vertex="1" parent="1">
          <mxGeometry x="360" y="540" width="120" height="60" as="geometry" />
        </mxCell>
        <mxCell id="9ZyyZGhGzsiPdLYiachG-60" style="edgeStyle=orthogonalEdgeStyle;rounded=0;orthogonalLoop=1;jettySize=auto;html=1;exitX=0.5;exitY=1;exitDx=0;exitDy=0;entryX=0.5;entryY=0;entryDx=0;entryDy=0;fontSize=12;fontColor=#000000;" edge="1" parent="1" source="9ZyyZGhGzsiPdLYiachG-46" target="9ZyyZGhGzsiPdLYiachG-47">
          <mxGeometry relative="1" as="geometry" />
        </mxCell>
        <mxCell id="9ZyyZGhGzsiPdLYiachG-46" value="Сохранение регистра AX из стека" style="rounded=0;whiteSpace=wrap;html=1;fontSize=12;fontColor=#000000;" vertex="1" parent="1">
          <mxGeometry x="360" y="620" width="120" height="60" as="geometry" />
        </mxCell>
        <mxCell id="9ZyyZGhGzsiPdLYiachG-61" style="edgeStyle=orthogonalEdgeStyle;rounded=0;orthogonalLoop=1;jettySize=auto;html=1;exitX=0.5;exitY=1;exitDx=0;exitDy=0;entryX=0.5;entryY=0;entryDx=0;entryDy=0;fontSize=12;fontColor=#000000;" edge="1" parent="1" source="9ZyyZGhGzsiPdLYiachG-47" target="9ZyyZGhGzsiPdLYiachG-49">
          <mxGeometry relative="1" as="geometry" />
        </mxCell>
        <mxCell id="9ZyyZGhGzsiPdLYiachG-47" value="&lt;div style=&quot;background-color: rgb(255, 255, 255); font-family: &amp;quot;Droid Sans Mono&amp;quot;, &amp;quot;monospace&amp;quot;, monospace; font-weight: normal; font-size: 12px; line-height: 19px; white-space: pre;&quot;&gt;&lt;div style=&quot;font-size: 12px;&quot;&gt;&lt;span style=&quot;font-size: 12px;&quot;&gt;AND&lt;/span&gt;  &lt;span style=&quot;font-size: 12px;&quot;&gt;AL&lt;/span&gt;&lt;span style=&quot;font-size: 12px;&quot;&gt;,&lt;/span&gt;&lt;/div&gt;&lt;div style=&quot;font-size: 12px;&quot;&gt;&lt;span style=&quot;font-size: 12px;&quot;&gt;00001111b&lt;/span&gt;&lt;/div&gt;&lt;/div&gt;" style="rounded=0;whiteSpace=wrap;html=1;fontSize=12;fontColor=#000000;" vertex="1" parent="1">
          <mxGeometry x="360" y="700" width="120" height="60" as="geometry" />
        </mxCell>
        <mxCell id="9ZyyZGhGzsiPdLYiachG-62" style="edgeStyle=orthogonalEdgeStyle;rounded=0;orthogonalLoop=1;jettySize=auto;html=1;exitX=0.5;exitY=1;exitDx=0;exitDy=0;entryX=0.5;entryY=0;entryDx=0;entryDy=0;fontSize=12;fontColor=#000000;" edge="1" parent="1" source="9ZyyZGhGzsiPdLYiachG-49" target="9ZyyZGhGzsiPdLYiachG-50">
          <mxGeometry relative="1" as="geometry" />
        </mxCell>
        <mxCell id="9ZyyZGhGzsiPdLYiachG-49" value="&lt;div style=&quot;background-color: rgb(255, 255, 255); font-family: &amp;quot;Droid Sans Mono&amp;quot;, &amp;quot;monospace&amp;quot;, monospace; font-weight: normal; font-size: 12px; line-height: 19px; white-space: pre;&quot;&gt;&lt;div style=&quot;font-size: 12px;&quot;&gt;&lt;span style=&quot;font-size: 12px;&quot;&gt;XLAT&lt;/span&gt;&lt;/div&gt;&lt;/div&gt;" style="rounded=0;whiteSpace=wrap;html=1;fontSize=12;fontColor=#000000;" vertex="1" parent="1">
          <mxGeometry x="360" y="780" width="120" height="60" as="geometry" />
        </mxCell>
        <mxCell id="9ZyyZGhGzsiPdLYiachG-63" style="edgeStyle=orthogonalEdgeStyle;rounded=0;orthogonalLoop=1;jettySize=auto;html=1;exitX=0.5;exitY=1;exitDx=0;exitDy=0;entryX=0.5;entryY=0;entryDx=0;entryDy=0;fontSize=12;fontColor=#000000;" edge="1" parent="1" source="9ZyyZGhGzsiPdLYiachG-50" target="9ZyyZGhGzsiPdLYiachG-51">
          <mxGeometry relative="1" as="geometry" />
        </mxCell>
        <mxCell id="9ZyyZGhGzsiPdLYiachG-50" value="&lt;div style=&quot;background-color: rgb(255, 255, 255); font-family: &amp;quot;Droid Sans Mono&amp;quot;, &amp;quot;monospace&amp;quot;, monospace; font-weight: normal; font-size: 12px; line-height: 19px; white-space: pre;&quot;&gt;&lt;div style=&quot;font-size: 12px;&quot;&gt;Сохранение&lt;/div&gt;&lt;div style=&quot;font-size: 12px;&quot;&gt;старших 4 бит&lt;/div&gt;&lt;div style=&quot;font-size: 12px;&quot;&gt;в массиве&lt;/div&gt;&lt;div style=&quot;font-size: 12px;&quot;&gt;HEXDGT&lt;/div&gt;&lt;/div&gt;" style="rounded=0;whiteSpace=wrap;html=1;fontSize=12;fontColor=#000000;" vertex="1" parent="1">
          <mxGeometry x="360" y="860" width="120" height="80" as="geometry" />
        </mxCell>
        <mxCell id="9ZyyZGhGzsiPdLYiachG-64" style="edgeStyle=orthogonalEdgeStyle;rounded=0;orthogonalLoop=1;jettySize=auto;html=1;exitX=0.5;exitY=1;exitDx=0;exitDy=0;entryX=0.5;entryY=0;entryDx=0;entryDy=0;fontSize=12;fontColor=#000000;" edge="1" parent="1" source="9ZyyZGhGzsiPdLYiachG-51" target="9ZyyZGhGzsiPdLYiachG-52">
          <mxGeometry relative="1" as="geometry" />
        </mxCell>
        <mxCell id="9ZyyZGhGzsiPdLYiachG-51" value="Сохранение регистра AX из стека" style="rounded=0;whiteSpace=wrap;html=1;fontSize=12;fontColor=#000000;" vertex="1" parent="1">
          <mxGeometry x="360" y="960" width="120" height="60" as="geometry" />
        </mxCell>
        <mxCell id="9ZyyZGhGzsiPdLYiachG-52" value="Конец Hex" style="rounded=1;whiteSpace=wrap;html=1;fontSize=12;fontColor=#000000;" vertex="1" parent="1">
          <mxGeometry x="360" y="1040" width="120" height="60" as="geometry" />
        </mxCell>
        <mxCell id="9ZyyZGhGzsiPdLYiachG-75" style="edgeStyle=orthogonalEdgeStyle;rounded=0;orthogonalLoop=1;jettySize=auto;html=1;exitX=0.5;exitY=1;exitDx=0;exitDy=0;entryX=0.5;entryY=0;entryDx=0;entryDy=0;fontSize=12;fontColor=#000000;" edge="1" parent="1" source="9ZyyZGhGzsiPdLYiachG-65" target="9ZyyZGhGzsiPdLYiachG-66">
          <mxGeometry relative="1" as="geometry" />
        </mxCell>
        <mxCell id="9ZyyZGhGzsiPdLYiachG-65" value="Начало" style="rounded=1;whiteSpace=wrap;html=1;fontSize=12;fontColor=#000000;" vertex="1" parent="1">
          <mxGeometry x="560" y="40" width="120" height="60" as="geometry" />
        </mxCell>
        <mxCell id="9ZyyZGhGzsiPdLYiachG-76" style="edgeStyle=orthogonalEdgeStyle;rounded=0;orthogonalLoop=1;jettySize=auto;html=1;exitX=0.5;exitY=1;exitDx=0;exitDy=0;entryX=0.5;entryY=0;entryDx=0;entryDy=0;fontSize=12;fontColor=#000000;" edge="1" parent="1" source="9ZyyZGhGzsiPdLYiachG-66" target="9ZyyZGhGzsiPdLYiachG-68">
          <mxGeometry relative="1" as="geometry" />
        </mxCell>
        <mxCell id="9ZyyZGhGzsiPdLYiachG-66" value="Загрузка регистров CS, DS" style="rounded=0;whiteSpace=wrap;html=1;fontSize=12;fontColor=#000000;" vertex="1" parent="1">
          <mxGeometry x="560" y="120" width="120" height="60" as="geometry" />
        </mxCell>
        <mxCell id="9ZyyZGhGzsiPdLYiachG-77" style="edgeStyle=orthogonalEdgeStyle;rounded=0;orthogonalLoop=1;jettySize=auto;html=1;exitX=0.5;exitY=1;exitDx=0;exitDy=0;entryX=0.5;entryY=0;entryDx=0;entryDy=0;fontSize=12;fontColor=#000000;" edge="1" parent="1" source="9ZyyZGhGzsiPdLYiachG-68" target="9ZyyZGhGzsiPdLYiachG-69">
          <mxGeometry relative="1" as="geometry" />
        </mxCell>
        <mxCell id="9ZyyZGhGzsiPdLYiachG-68" value="&lt;div style=&quot;background-color: rgb(255, 255, 255); font-family: &amp;quot;Droid Sans Mono&amp;quot;, &amp;quot;monospace&amp;quot;, monospace; font-weight: normal; font-size: 12px; line-height: 19px; white-space: pre;&quot;&gt;&lt;div style=&quot;font-size: 12px;&quot;&gt;&lt;span style=&quot;font-size: 12px;&quot;&gt;CALL&lt;/span&gt;&lt;span style=&quot;font-size: 12px;&quot;&gt;&lt;br style=&quot;font-size: 12px;&quot;&gt;&lt;/span&gt;&lt;/div&gt;&lt;div style=&quot;font-size: 12px;&quot;&gt;&lt;span style=&quot;font-size: 12px;&quot;&gt;PRINT&lt;/span&gt;&lt;/div&gt;&lt;div style=&quot;font-size: 12px;&quot;&gt;&lt;span style=&quot;font-size: 12px;&quot;&gt;HEADER&lt;/span&gt;&lt;/div&gt;&lt;/div&gt;" style="shape=process;whiteSpace=wrap;html=1;backgroundOutline=1;fontSize=12;fontColor=#000000;" vertex="1" parent="1">
          <mxGeometry x="560" y="200" width="120" height="60" as="geometry" />
        </mxCell>
        <mxCell id="9ZyyZGhGzsiPdLYiachG-78" style="edgeStyle=orthogonalEdgeStyle;rounded=0;orthogonalLoop=1;jettySize=auto;html=1;exitX=0.5;exitY=1;exitDx=0;exitDy=0;entryX=0.5;entryY=0;entryDx=0;entryDy=0;fontSize=12;fontColor=#000000;" edge="1" parent="1" source="9ZyyZGhGzsiPdLYiachG-69" target="9ZyyZGhGzsiPdLYiachG-70">
          <mxGeometry relative="1" as="geometry" />
        </mxCell>
        <mxCell id="9ZyyZGhGzsiPdLYiachG-69" value="&lt;div style=&quot;background-color: rgb(255, 255, 255); font-family: &amp;quot;Droid Sans Mono&amp;quot;, &amp;quot;monospace&amp;quot;, monospace; font-weight: normal; font-size: 12px; line-height: 19px; white-space: pre;&quot;&gt;&lt;div style=&quot;font-size: 12px;&quot;&gt;&lt;span style=&quot;font-size: 12px;&quot;&gt;CALL&lt;/span&gt;&lt;span style=&quot;font-size: 12px;&quot;&gt;&lt;br style=&quot;font-size: 12px;&quot;&gt;&lt;/span&gt;&lt;/div&gt;&lt;div style=&quot;font-size: 12px;&quot;&gt;&lt;span style=&quot;font-size: 12px;&quot;&gt;HEX&lt;/span&gt;&lt;/div&gt;&lt;/div&gt;" style="shape=process;whiteSpace=wrap;html=1;backgroundOutline=1;fontSize=12;fontColor=#000000;" vertex="1" parent="1">
          <mxGeometry x="560" y="301" width="120" height="60" as="geometry" />
        </mxCell>
        <mxCell id="9ZyyZGhGzsiPdLYiachG-79" style="edgeStyle=orthogonalEdgeStyle;rounded=0;orthogonalLoop=1;jettySize=auto;html=1;exitX=0.5;exitY=1;exitDx=0;exitDy=0;entryX=0.5;entryY=0;entryDx=0;entryDy=0;fontSize=12;fontColor=#000000;" edge="1" parent="1" source="9ZyyZGhGzsiPdLYiachG-70" target="9ZyyZGhGzsiPdLYiachG-71">
          <mxGeometry relative="1" as="geometry" />
        </mxCell>
        <mxCell id="9ZyyZGhGzsiPdLYiachG-70" value="&lt;div style=&quot;background-color: rgb(255, 255, 255); font-family: &amp;quot;Droid Sans Mono&amp;quot;, &amp;quot;monospace&amp;quot;, monospace; font-weight: normal; font-size: 12px; line-height: 19px; white-space: pre;&quot;&gt;&lt;div style=&quot;font-size: 12px;&quot;&gt;&lt;span style=&quot;font-size: 12px;&quot;&gt;CALL&lt;/span&gt;&lt;span style=&quot;font-size: 12px;&quot;&gt;&lt;br style=&quot;font-size: 12px;&quot;&gt;&lt;/span&gt;&lt;/div&gt;&lt;div style=&quot;font-size: 12px;&quot;&gt;&lt;span style=&quot;font-size: 12px;&quot;&gt;PUTCH&lt;/span&gt;&lt;/div&gt;&lt;/div&gt;" style="shape=process;whiteSpace=wrap;html=1;backgroundOutline=1;fontSize=12;fontColor=#000000;" vertex="1" parent="1">
          <mxGeometry x="560" y="381" width="120" height="60" as="geometry" />
        </mxCell>
        <mxCell id="9ZyyZGhGzsiPdLYiachG-80" style="edgeStyle=orthogonalEdgeStyle;rounded=0;orthogonalLoop=1;jettySize=auto;html=1;exitX=0.5;exitY=1;exitDx=0;exitDy=0;entryX=0.5;entryY=0;entryDx=0;entryDy=0;fontSize=12;fontColor=#000000;" edge="1" parent="1" source="9ZyyZGhGzsiPdLYiachG-71" target="9ZyyZGhGzsiPdLYiachG-72">
          <mxGeometry relative="1" as="geometry" />
        </mxCell>
        <mxCell id="9ZyyZGhGzsiPdLYiachG-87" style="edgeStyle=orthogonalEdgeStyle;rounded=0;orthogonalLoop=1;jettySize=auto;html=1;exitX=0;exitY=0.5;exitDx=0;exitDy=0;entryX=0.5;entryY=0;entryDx=0;entryDy=0;fontSize=12;fontColor=#000000;" edge="1" parent="1" source="9ZyyZGhGzsiPdLYiachG-71" target="9ZyyZGhGzsiPdLYiachG-86">
          <mxGeometry relative="1" as="geometry">
            <Array as="points">
              <mxPoint x="540" y="501" />
              <mxPoint x="540" y="820" />
              <mxPoint x="620" y="820" />
            </Array>
          </mxGeometry>
        </mxCell>
        <mxCell id="9ZyyZGhGzsiPdLYiachG-71" value="&lt;div style=&quot;background-color: rgb(255, 255, 255); font-family: &amp;quot;Droid Sans Mono&amp;quot;, &amp;quot;monospace&amp;quot;, monospace; font-weight: normal; font-size: 12px; line-height: 19px; white-space: pre;&quot;&gt;&lt;div style=&quot;font-size: 12px;&quot;&gt;&lt;span style=&quot;font-size: 12px;&quot;&gt;CMP&lt;/span&gt;&lt;/div&gt;&lt;div style=&quot;font-size: 12px;&quot;&gt;&lt;span style=&quot;font-size: 12px;&quot;&gt;CX&lt;/span&gt;&lt;span style=&quot;font-size: 12px;&quot;&gt;, &lt;/span&gt;&lt;span style=&quot;font-size: 12px;&quot;&gt;1&lt;/span&gt;&lt;/div&gt;&lt;/div&gt;" style="rhombus;whiteSpace=wrap;html=1;fontSize=12;fontColor=#000000;" vertex="1" parent="1">
          <mxGeometry x="580" y="461" width="80" height="80" as="geometry" />
        </mxCell>
        <mxCell id="9ZyyZGhGzsiPdLYiachG-81" style="edgeStyle=orthogonalEdgeStyle;rounded=0;orthogonalLoop=1;jettySize=auto;html=1;exitX=0.5;exitY=1;exitDx=0;exitDy=0;entryX=0.5;entryY=0;entryDx=0;entryDy=0;fontSize=12;fontColor=#000000;" edge="1" parent="1" source="9ZyyZGhGzsiPdLYiachG-72" target="9ZyyZGhGzsiPdLYiachG-73">
          <mxGeometry relative="1" as="geometry" />
        </mxCell>
        <mxCell id="9ZyyZGhGzsiPdLYiachG-72" value="&lt;div style=&quot;background-color: rgb(255, 255, 255); font-family: &amp;quot;Droid Sans Mono&amp;quot;, &amp;quot;monospace&amp;quot;, monospace; font-weight: normal; font-size: 12px; line-height: 19px; white-space: pre;&quot;&gt;&lt;div style=&quot;font-size: 12px;&quot;&gt;&lt;span style=&quot;font-size: 12px;&quot;&gt;CALL&lt;/span&gt;&lt;span style=&quot;font-size: 12px;&quot;&gt;&lt;br style=&quot;font-size: 12px;&quot;&gt;&lt;/span&gt;&lt;/div&gt;&lt;div style=&quot;font-size: 12px;&quot;&gt;&lt;span style=&quot;font-size: 12px;&quot;&gt;PRINT&lt;/span&gt;&lt;/div&gt;&lt;div style=&quot;font-size: 12px;&quot;&gt;LINE&lt;br style=&quot;font-size: 12px;&quot;&gt;&lt;/div&gt;&lt;/div&gt;" style="shape=process;whiteSpace=wrap;html=1;backgroundOutline=1;fontSize=12;fontColor=#000000;" vertex="1" parent="1">
          <mxGeometry x="560" y="561" width="120" height="60" as="geometry" />
        </mxCell>
        <mxCell id="9ZyyZGhGzsiPdLYiachG-82" style="edgeStyle=orthogonalEdgeStyle;rounded=0;orthogonalLoop=1;jettySize=auto;html=1;exitX=0.5;exitY=1;exitDx=0;exitDy=0;entryX=0.5;entryY=0;entryDx=0;entryDy=0;fontSize=12;fontColor=#000000;" edge="1" parent="1" source="9ZyyZGhGzsiPdLYiachG-73" target="9ZyyZGhGzsiPdLYiachG-74">
          <mxGeometry relative="1" as="geometry" />
        </mxCell>
        <mxCell id="9ZyyZGhGzsiPdLYiachG-73" value="&lt;div style=&quot;background-color: rgb(255, 255, 255); font-family: &amp;quot;Droid Sans Mono&amp;quot;, &amp;quot;monospace&amp;quot;, monospace; font-weight: normal; font-size: 12px; line-height: 19px; white-space: pre;&quot;&gt;&lt;div style=&quot;font-size: 12px;&quot;&gt;&lt;span style=&quot;font-size: 12px;&quot;&gt;MOV&lt;/span&gt;  &lt;span style=&quot;font-size: 12px;&quot;&gt;AH&lt;/span&gt;&lt;span style=&quot;font-size: 12px;&quot;&gt;, &lt;/span&gt;&lt;span style=&quot;font-size: 12px;&quot;&gt;00&lt;/span&gt;&lt;/div&gt;&lt;/div&gt;" style="rounded=0;whiteSpace=wrap;html=1;fontSize=12;fontColor=#000000;" vertex="1" parent="1">
          <mxGeometry x="560" y="641" width="120" height="60" as="geometry" />
        </mxCell>
        <mxCell id="9ZyyZGhGzsiPdLYiachG-85" style="edgeStyle=orthogonalEdgeStyle;rounded=0;orthogonalLoop=1;jettySize=auto;html=1;exitX=0.5;exitY=1;exitDx=0;exitDy=0;fontSize=12;fontColor=#000000;" edge="1" parent="1" source="9ZyyZGhGzsiPdLYiachG-74">
          <mxGeometry relative="1" as="geometry">
            <mxPoint x="620" y="290" as="targetPoint" />
            <Array as="points">
              <mxPoint x="620" y="801" />
              <mxPoint x="700" y="801" />
              <mxPoint x="700" y="290" />
            </Array>
          </mxGeometry>
        </mxCell>
        <mxCell id="9ZyyZGhGzsiPdLYiachG-74" value="&lt;div style=&quot;background-color: rgb(255, 255, 255); font-family: &amp;quot;Droid Sans Mono&amp;quot;, &amp;quot;monospace&amp;quot;, monospace; font-weight: normal; font-size: 12px; line-height: 19px; white-space: pre;&quot;&gt;&lt;div style=&quot;font-size: 12px;&quot;&gt;&lt;span style=&quot;font-size: 12px;&quot;&gt;INC&lt;/span&gt; &lt;span style=&quot;font-size: 12px;&quot;&gt;AX&lt;/span&gt;&lt;/div&gt;&lt;/div&gt;" style="rounded=0;whiteSpace=wrap;html=1;fontSize=12;fontColor=#000000;" vertex="1" parent="1">
          <mxGeometry x="560" y="721" width="120" height="60" as="geometry" />
        </mxCell>
        <mxCell id="9ZyyZGhGzsiPdLYiachG-83" value="Нет" style="text;html=1;align=center;verticalAlign=middle;whiteSpace=wrap;rounded=0;fontSize=12;fontColor=#000000;" vertex="1" parent="1">
          <mxGeometry x="610" y="531" width="60" height="30" as="geometry" />
        </mxCell>
        <mxCell id="9ZyyZGhGzsiPdLYiachG-90" style="edgeStyle=orthogonalEdgeStyle;rounded=0;orthogonalLoop=1;jettySize=auto;html=1;exitX=0.5;exitY=1;exitDx=0;exitDy=0;entryX=0.5;entryY=0;entryDx=0;entryDy=0;fontSize=12;fontColor=#000000;" edge="1" parent="1" source="9ZyyZGhGzsiPdLYiachG-86" target="9ZyyZGhGzsiPdLYiachG-89">
          <mxGeometry relative="1" as="geometry" />
        </mxCell>
        <mxCell id="9ZyyZGhGzsiPdLYiachG-86" value="&lt;div style=&quot;background-color: rgb(255, 255, 255); font-family: &amp;quot;Droid Sans Mono&amp;quot;, &amp;quot;monospace&amp;quot;, monospace; font-weight: normal; font-size: 12px; line-height: 19px; white-space: pre;&quot;&gt;&lt;div style=&quot;font-size: 12px;&quot;&gt;&lt;span style=&quot;font-size: 12px;&quot;&gt;CALL&lt;/span&gt;&lt;span style=&quot;font-size: 12px;&quot;&gt;&lt;br style=&quot;font-size: 12px;&quot;&gt;&lt;/span&gt;&lt;/div&gt;&lt;div style=&quot;font-size: 12px;&quot;&gt;&lt;span style=&quot;font-size: 12px;&quot;&gt;PRINT&lt;/span&gt;&lt;/div&gt;&lt;div style=&quot;font-size: 12px;&quot;&gt;FOOTER&lt;br style=&quot;font-size: 12px;&quot;&gt;&lt;/div&gt;&lt;/div&gt;" style="shape=process;whiteSpace=wrap;html=1;backgroundOutline=1;fontSize=12;fontColor=#000000;" vertex="1" parent="1">
          <mxGeometry x="560" y="840" width="120" height="60" as="geometry" />
        </mxCell>
        <mxCell id="9ZyyZGhGzsiPdLYiachG-88" value="Да" style="text;html=1;align=center;verticalAlign=middle;whiteSpace=wrap;rounded=0;fontSize=12;fontColor=#000000;" vertex="1" parent="1">
          <mxGeometry x="540" y="480" width="60" height="30" as="geometry" />
        </mxCell>
        <mxCell id="9ZyyZGhGzsiPdLYiachG-93" style="edgeStyle=orthogonalEdgeStyle;rounded=0;orthogonalLoop=1;jettySize=auto;html=1;exitX=0.5;exitY=1;exitDx=0;exitDy=0;entryX=0.5;entryY=0;entryDx=0;entryDy=0;fontSize=12;fontColor=#000000;" edge="1" parent="1" source="9ZyyZGhGzsiPdLYiachG-89" target="9ZyyZGhGzsiPdLYiachG-92">
          <mxGeometry relative="1" as="geometry" />
        </mxCell>
        <mxCell id="9ZyyZGhGzsiPdLYiachG-89" value="&lt;div style=&quot;background-color: rgb(255, 255, 255); font-family: &amp;quot;Droid Sans Mono&amp;quot;, &amp;quot;monospace&amp;quot;, monospace; font-weight: normal; font-size: 12px; line-height: 19px; white-space: pre;&quot;&gt;&lt;div style=&quot;font-size: 12px;&quot;&gt;&lt;span style=&quot;font-size: 12px;&quot;&gt;MOV&lt;/span&gt;  &lt;span style=&quot;font-size: 12px;&quot;&gt;DX&lt;/span&gt;&lt;span style=&quot;font-size: 12px;&quot;&gt;,&lt;/span&gt;&lt;/div&gt;&lt;div style=&quot;font-size: 12px;&quot;&gt;&lt;span style=&quot;font-size: 12px;&quot;&gt;OFFSET MSG&lt;/span&gt;&lt;/div&gt;&lt;/div&gt;" style="rounded=0;whiteSpace=wrap;html=1;fontSize=12;fontColor=#000000;" vertex="1" parent="1">
          <mxGeometry x="560" y="920" width="120" height="60" as="geometry" />
        </mxCell>
        <mxCell id="9ZyyZGhGzsiPdLYiachG-105" style="edgeStyle=orthogonalEdgeStyle;rounded=0;orthogonalLoop=1;jettySize=auto;html=1;exitX=0.5;exitY=1;exitDx=0;exitDy=0;entryX=0.5;entryY=0;entryDx=0;entryDy=0;fontSize=12;fontColor=#000000;" edge="1" parent="1" source="9ZyyZGhGzsiPdLYiachG-92" target="9ZyyZGhGzsiPdLYiachG-94">
          <mxGeometry relative="1" as="geometry">
            <Array as="points">
              <mxPoint x="620" y="1080" />
              <mxPoint x="720" y="1080" />
              <mxPoint x="720" y="100" />
              <mxPoint x="800" y="100" />
            </Array>
          </mxGeometry>
        </mxCell>
        <mxCell id="9ZyyZGhGzsiPdLYiachG-92" value="&lt;div style=&quot;background-color: rgb(255, 255, 255); font-family: &amp;quot;Droid Sans Mono&amp;quot;, &amp;quot;monospace&amp;quot;, monospace; font-weight: normal; font-size: 12px; line-height: 19px; white-space: pre;&quot;&gt;&lt;div style=&quot;font-size: 12px;&quot;&gt;&lt;span style=&quot;font-size: 12px;&quot;&gt;CALL&lt;/span&gt;&lt;span style=&quot;font-size: 12px;&quot;&gt;&lt;br style=&quot;font-size: 12px;&quot;&gt;&lt;/span&gt;&lt;/div&gt;&lt;div style=&quot;font-size: 12px;&quot;&gt;&lt;span style=&quot;font-size: 12px;&quot;&gt;CLRF&lt;/span&gt;&lt;/div&gt;&lt;/div&gt;" style="shape=process;whiteSpace=wrap;html=1;backgroundOutline=1;fontSize=12;fontColor=#000000;" vertex="1" parent="1">
          <mxGeometry x="560" y="1000" width="120" height="60" as="geometry" />
        </mxCell>
        <mxCell id="9ZyyZGhGzsiPdLYiachG-99" style="edgeStyle=orthogonalEdgeStyle;rounded=0;orthogonalLoop=1;jettySize=auto;html=1;exitX=0.5;exitY=1;exitDx=0;exitDy=0;entryX=0.5;entryY=0;entryDx=0;entryDy=0;fontSize=12;fontColor=#000000;" edge="1" parent="1" source="9ZyyZGhGzsiPdLYiachG-94" target="9ZyyZGhGzsiPdLYiachG-96">
          <mxGeometry relative="1" as="geometry" />
        </mxCell>
        <mxCell id="9ZyyZGhGzsiPdLYiachG-94" value="&lt;div style=&quot;background-color: rgb(255, 255, 255); font-family: &amp;quot;Droid Sans Mono&amp;quot;, &amp;quot;monospace&amp;quot;, monospace; font-weight: normal; font-size: 12px; line-height: 19px; white-space: pre;&quot;&gt;&lt;div style=&quot;font-size: 12px;&quot;&gt;&lt;span style=&quot;font-size: 12px;&quot;&gt;CALL&lt;/span&gt;&lt;span style=&quot;font-size: 12px;&quot;&gt;&lt;br style=&quot;font-size: 12px;&quot;&gt;&lt;/span&gt;&lt;/div&gt;&lt;div style=&quot;font-size: 12px;&quot;&gt;&lt;span style=&quot;font-size: 12px;&quot;&gt;GETCH&lt;br style=&quot;font-size: 12px;&quot;&gt;&lt;/span&gt;&lt;/div&gt;&lt;/div&gt;" style="shape=process;whiteSpace=wrap;html=1;backgroundOutline=1;fontSize=12;fontColor=#000000;" vertex="1" parent="1">
          <mxGeometry x="740" y="120" width="120" height="60" as="geometry" />
        </mxCell>
        <mxCell id="9ZyyZGhGzsiPdLYiachG-104" style="edgeStyle=orthogonalEdgeStyle;rounded=0;orthogonalLoop=1;jettySize=auto;html=1;exitX=0.5;exitY=1;exitDx=0;exitDy=0;entryX=0.5;entryY=0;entryDx=0;entryDy=0;fontSize=12;fontColor=#000000;" edge="1" parent="1" source="9ZyyZGhGzsiPdLYiachG-96" target="9ZyyZGhGzsiPdLYiachG-97">
          <mxGeometry relative="1" as="geometry" />
        </mxCell>
        <mxCell id="9ZyyZGhGzsiPdLYiachG-111" style="edgeStyle=orthogonalEdgeStyle;rounded=0;orthogonalLoop=1;jettySize=auto;html=1;exitX=1;exitY=0.5;exitDx=0;exitDy=0;entryX=0.5;entryY=0;entryDx=0;entryDy=0;fontSize=12;fontColor=#000000;" edge="1" parent="1" source="9ZyyZGhGzsiPdLYiachG-96" target="9ZyyZGhGzsiPdLYiachG-106">
          <mxGeometry relative="1" as="geometry">
            <Array as="points">
              <mxPoint x="880" y="245" />
              <mxPoint x="880" y="500" />
              <mxPoint x="800" y="500" />
            </Array>
          </mxGeometry>
        </mxCell>
        <mxCell id="9ZyyZGhGzsiPdLYiachG-96" value="&lt;div style=&quot;background-color: rgb(255, 255, 255); font-family: &amp;quot;Droid Sans Mono&amp;quot;, &amp;quot;monospace&amp;quot;, monospace; font-weight: normal; font-size: 12px; line-height: 19px; white-space: pre;&quot;&gt;&lt;div style=&quot;font-size: 12px;&quot;&gt;&lt;span style=&quot;font-size: 12px;&quot;&gt;CMP&lt;/span&gt;&lt;/div&gt;&lt;div style=&quot;font-size: 12px;&quot;&gt;&lt;span style=&quot;font-size: 12px;&quot;&gt;AL&lt;/span&gt;&lt;span style=&quot;font-size: 12px;&quot;&gt;, &lt;/span&gt;&lt;span style=&quot;font-size: 12px;&quot;&gt;&#39;*&#39;&lt;/span&gt;&lt;/div&gt;&lt;/div&gt;" style="rhombus;whiteSpace=wrap;html=1;fontSize=12;fontColor=#000000;" vertex="1" parent="1">
          <mxGeometry x="745" y="200" width="110" height="90" as="geometry" />
        </mxCell>
        <mxCell id="9ZyyZGhGzsiPdLYiachG-101" style="edgeStyle=orthogonalEdgeStyle;rounded=0;orthogonalLoop=1;jettySize=auto;html=1;exitX=0.5;exitY=1;exitDx=0;exitDy=0;entryX=0.5;entryY=0;entryDx=0;entryDy=0;fontSize=12;fontColor=#000000;" edge="1" parent="1" source="9ZyyZGhGzsiPdLYiachG-97" target="9ZyyZGhGzsiPdLYiachG-98">
          <mxGeometry relative="1" as="geometry" />
        </mxCell>
        <mxCell id="9ZyyZGhGzsiPdLYiachG-97" value="&lt;div style=&quot;background-color: rgb(255, 255, 255); font-family: &amp;quot;Droid Sans Mono&amp;quot;, &amp;quot;monospace&amp;quot;, monospace; font-weight: normal; font-size: 12px; line-height: 19px; white-space: pre;&quot;&gt;&lt;div style=&quot;font-size: 12px;&quot;&gt;&lt;span style=&quot;font-size: 12px;&quot;&gt;MOV&lt;/span&gt;  &lt;span style=&quot;font-size: 12px;&quot;&gt;CX&lt;/span&gt;&lt;span style=&quot;font-size: 12px;&quot;&gt;, &lt;/span&gt;&lt;span style=&quot;font-size: 12px;&quot;&gt;20&lt;/span&gt;&lt;/div&gt;&lt;/div&gt;" style="rounded=0;whiteSpace=wrap;html=1;fontSize=12;fontColor=#000000;" vertex="1" parent="1">
          <mxGeometry x="740" y="317" width="120" height="60" as="geometry" />
        </mxCell>
        <mxCell id="9ZyyZGhGzsiPdLYiachG-102" style="edgeStyle=orthogonalEdgeStyle;rounded=0;orthogonalLoop=1;jettySize=auto;html=1;exitX=0.5;exitY=1;exitDx=0;exitDy=0;fontSize=12;fontColor=#000000;" edge="1" parent="1" source="9ZyyZGhGzsiPdLYiachG-98">
          <mxGeometry relative="1" as="geometry">
            <mxPoint x="620" y="270" as="targetPoint" />
            <Array as="points">
              <mxPoint x="800" y="480" />
              <mxPoint x="710" y="480" />
              <mxPoint x="710" y="270" />
            </Array>
          </mxGeometry>
        </mxCell>
        <mxCell id="9ZyyZGhGzsiPdLYiachG-98" value="&lt;div style=&quot;background-color: rgb(255, 255, 255); font-family: &amp;quot;Droid Sans Mono&amp;quot;, &amp;quot;monospace&amp;quot;, monospace; font-weight: normal; font-size: 12px; line-height: 19px; white-space: pre;&quot;&gt;&lt;div style=&quot;font-size: 12px;&quot;&gt;&lt;span style=&quot;font-size: 12px;&quot;&gt;MOV&lt;/span&gt; &lt;span style=&quot;font-size: 12px;&quot;&gt;AH&lt;/span&gt;&lt;span style=&quot;font-size: 12px;&quot;&gt;, &lt;/span&gt;&lt;span style=&quot;font-size: 12px;&quot;&gt;0&lt;/span&gt;&lt;/div&gt;&lt;/div&gt;" style="rounded=0;whiteSpace=wrap;html=1;fontSize=12;fontColor=#000000;" vertex="1" parent="1">
          <mxGeometry x="740" y="396" width="120" height="60" as="geometry" />
        </mxCell>
        <mxCell id="9ZyyZGhGzsiPdLYiachG-103" value="Нет" style="text;html=1;align=center;verticalAlign=middle;whiteSpace=wrap;rounded=0;fontSize=12;fontColor=#000000;" vertex="1" parent="1">
          <mxGeometry x="790" y="280" width="60" height="30" as="geometry" />
        </mxCell>
        <mxCell id="9ZyyZGhGzsiPdLYiachG-110" style="edgeStyle=orthogonalEdgeStyle;rounded=0;orthogonalLoop=1;jettySize=auto;html=1;exitX=0.5;exitY=1;exitDx=0;exitDy=0;entryX=0.5;entryY=0;entryDx=0;entryDy=0;fontSize=12;fontColor=#000000;" edge="1" parent="1" source="9ZyyZGhGzsiPdLYiachG-106" target="9ZyyZGhGzsiPdLYiachG-108">
          <mxGeometry relative="1" as="geometry" />
        </mxCell>
        <mxCell id="9ZyyZGhGzsiPdLYiachG-106" value="&lt;div style=&quot;background-color: rgb(255, 255, 255); font-family: &amp;quot;Droid Sans Mono&amp;quot;, &amp;quot;monospace&amp;quot;, monospace; font-weight: normal; font-size: 12px; line-height: 19px; white-space: pre;&quot;&gt;&lt;div style=&quot;font-size: 12px;&quot;&gt;&lt;span style=&quot;font-size: 12px;&quot;&gt;MOV&lt;/span&gt;  &lt;span style=&quot;font-size: 12px;&quot;&gt;DX&lt;/span&gt;&lt;span style=&quot;font-size: 12px;&quot;&gt;,&lt;/span&gt;&lt;/div&gt;&lt;div style=&quot;font-size: 12px;&quot;&gt;&lt;span style=&quot;font-size: 12px;&quot;&gt;OFFSET&lt;/span&gt;&lt;/div&gt;&lt;div style=&quot;font-size: 12px;&quot;&gt;&lt;span style=&quot;font-size: 12px;&quot;&gt;EXIT_MSG&lt;/span&gt;&lt;/div&gt;&lt;/div&gt;" style="rounded=0;whiteSpace=wrap;html=1;fontSize=12;fontColor=#000000;" vertex="1" parent="1">
          <mxGeometry x="740" y="520" width="120" height="60" as="geometry" />
        </mxCell>
        <mxCell id="9ZyyZGhGzsiPdLYiachG-107" style="edgeStyle=orthogonalEdgeStyle;rounded=0;orthogonalLoop=1;jettySize=auto;html=1;exitX=0.5;exitY=1;exitDx=0;exitDy=0;entryX=0.5;entryY=0;entryDx=0;entryDy=0;fontSize=12;fontColor=#000000;" edge="1" parent="1" source="9ZyyZGhGzsiPdLYiachG-108" target="9ZyyZGhGzsiPdLYiachG-109">
          <mxGeometry relative="1" as="geometry" />
        </mxCell>
        <mxCell id="9ZyyZGhGzsiPdLYiachG-108" value="Выход из программы с кодом 0" style="rounded=0;whiteSpace=wrap;html=1;fontSize=12;fontColor=#000000;" vertex="1" parent="1">
          <mxGeometry x="740" y="600" width="120" height="60" as="geometry" />
        </mxCell>
        <mxCell id="9ZyyZGhGzsiPdLYiachG-109" value="Конец" style="rounded=1;whiteSpace=wrap;html=1;fontSize=12;fontColor=#000000;" vertex="1" parent="1">
          <mxGeometry x="740" y="680" width="120" height="60" as="geometry" />
        </mxCell>
        <mxCell id="9ZyyZGhGzsiPdLYiachG-112" value="Да" style="text;html=1;align=center;verticalAlign=middle;whiteSpace=wrap;rounded=0;fontSize=12;fontColor=#000000;" vertex="1" parent="1">
          <mxGeometry x="830" y="215" width="60" height="30" as="geometry" />
        </mxCell>
      </root>
    </mxGraphModel>
  </diagram>
</mxfile>
